<svg width="30" height="30" viewBox="0 0 30 30" fill="none" xmlns="http://www.w3.org/2000/svg">
<path fill-rule="evenodd" clip-rule="evenodd" d="M15 30C23.2843 30 30 23.2843 30 15C30 6.71573 23.2843 0 15 0C6.71573 0 0 6.71573 0 15C0 23.2843 6.71573 30 15 30ZM14.1018 11.9931H21.5516L19.523 16.6532H12.8175L10.2008 7.19017L10.2003 7.18832C10.0618 6.67718 9.59388 6.33179 9.07426 6.33179H6.6659C6.02351 6.33179 5.5 6.8553 5.5 7.49769C5.5 8.14007 6.02351 8.66359 6.6659 8.66359H8.1943L10.8111 18.1266L10.8116 18.1285C10.9501 18.6396 11.418 18.985 11.9376 18.985H20.2946C20.7648 18.985 21.1714 18.7079 21.3603 18.2924L24.4045 11.293L24.4067 11.2876C24.5602 10.9231 24.5215 10.5158 24.3102 10.1893C24.0935 9.8544 23.7225 9.66128 23.3355 9.66128H14.1018C13.4594 9.66128 12.9359 10.1848 12.9359 10.8272C12.9359 11.4696 13.4594 11.9931 14.1018 11.9931ZM11.305 23.6684C12.4135 23.6684 13.3144 22.7676 13.3144 21.6591C13.3144 20.5505 12.4135 19.6497 11.305 19.6497C10.1965 19.6497 9.29563 20.5505 9.29563 21.659C9.29563 22.7675 10.1965 23.6684 11.305 23.6684ZM20.7388 23.6684H20.8703L20.8911 23.6667C21.4137 23.6232 21.9025 23.389 22.2584 22.9756C22.6191 22.5679 22.7757 22.0478 22.7472 21.5211L22.7468 21.5144C22.6726 20.4163 21.7117 19.577 20.6054 19.6508C19.4911 19.7251 18.6677 20.702 18.7414 21.7926L18.7415 21.794C18.815 22.8385 19.6828 23.6684 20.7388 23.6684Z" fill="white"/>
</svg>
