<svg width="59" height="59" viewBox="0 0 59 59" fill="none" xmlns="http://www.w3.org/2000/svg">
<path d="M36.2723 19.5054C36.2723 21.2344 37.682 22.6373 39.4196 22.6373C41.1572 22.6373 42.5669 21.2344 42.5669 19.5054C42.5669 17.7763 41.1572 16.3735 39.4196 16.3735C37.682 16.3735 36.2723 17.7763 36.2723 19.5054Z" fill="white"/>
<path d="M14.9581 36.3188L19.798 38.7268L21.4229 30.6484L19.0112 28.2485L14.9581 36.3188Z" fill="white"/>
<path d="M22.011 38.3598L27.8794 35.44V27.9304L23.5272 30.8176L22.011 38.3598Z" fill="white"/>
<path d="M29.9776 27.9304V35.44L35.844 38.3598L34.3277 30.8176L34.0593 30.6382L29.9776 27.9304Z" fill="white"/>
<path fill-rule="evenodd" clip-rule="evenodd" d="M29.2857 58.5714C45.4597 58.5714 58.5714 45.4597 58.5714 29.2857C58.5714 13.1117 45.4597 0 29.2857 0C13.1117 0 0 13.1117 0 29.2857C0 45.4597 13.1117 58.5714 29.2857 58.5714ZM34.174 19.5054C34.174 16.6223 36.5222 14.2856 39.4196 14.2856C42.3169 14.2856 44.6651 16.6223 44.6651 19.5054C44.6651 20.2843 44.493 21.0244 44.1857 21.6871L39.4196 30.9889L34.6535 21.6871C34.3462 21.0244 34.174 20.2843 34.174 19.5054ZM42.8989 36.3188L40.9892 32.5202L42.1735 30.208L45.7142 37.2526L37.3214 41.4285L28.9285 37.2526L20.5357 41.4285L12.1428 37.2526L18.4374 24.7252L22.6339 28.901L28.9285 24.7252L35.2231 28.901L35.7354 28.3913L36.7354 30.3487L36.4341 30.6484L38.057 38.7268L42.8989 36.3188Z" fill="white"/>
</svg>
