<svg width="19" height="13" viewBox="0 0 19 13" fill="none" xmlns="http://www.w3.org/2000/svg">
<path fill-rule="evenodd" clip-rule="evenodd" d="M0 1C0 0.447715 0.447715 0 1 0H18C18.5523 0 19 0.447715 19 1C19 1.55228 18.5523 2 18 2H1C0.447715 2 0 1.55228 0 1ZM0 6.5C0 5.94772 0.447715 5.5 1 5.5H18C18.5523 5.5 19 5.94772 19 6.5C19 7.05228 18.5523 7.5 18 7.5H1C0.447715 7.5 0 7.05228 0 6.5ZM0 12C0 11.4477 0.447715 11 1 11H18C18.5523 11 19 11.4477 19 12C19 12.5523 18.5523 13 18 13H1C0.447715 13 0 12.5523 0 12Z" fill="#151515"/>
</svg>
