<svg width="42" height="42" viewBox="0 0 42 42" fill="none" xmlns="http://www.w3.org/2000/svg">
<path fill-rule="evenodd" clip-rule="evenodd" d="M21 42C32.598 42 42 32.598 42 21C42 9.40202 32.598 0 21 0C9.40202 0 0 9.40202 0 21C0 32.598 9.40202 42 21 42ZM19.7425 16.7903H30.1722L27.3322 23.3145H17.9445L14.2811 10.0662L14.2804 10.0636C14.0865 9.34805 13.4314 8.8645 12.704 8.8645H9.33226C8.43292 8.8645 7.7 9.59742 7.7 10.4968C7.7 11.3961 8.43292 12.129 9.33226 12.129H11.472L15.1355 25.3773L15.1362 25.3799C15.3301 26.0955 15.9852 26.579 16.7126 26.579H28.4125C29.0707 26.579 29.64 26.1911 29.9044 25.6094L34.1663 15.8102L34.1694 15.8026C34.3843 15.2924 34.3301 14.7221 34.0343 14.265C33.7309 13.7962 33.2115 13.5258 32.6697 13.5258H19.7425C18.8431 13.5258 18.1102 14.2587 18.1102 15.1581C18.1102 16.0574 18.8431 16.7903 19.7425 16.7903ZM15.827 33.1358C17.3789 33.1358 18.6401 31.8746 18.6401 30.3227C18.6401 28.7708 17.3789 27.5096 15.827 27.5096C14.2751 27.5096 13.0139 28.7707 13.0139 30.3226C13.0139 31.8745 14.275 33.1358 15.827 33.1358ZM29.0343 33.1358H29.2185L29.2475 33.1334C29.9791 33.0724 30.6635 32.7446 31.1617 32.1658C31.6667 31.5951 31.886 30.8669 31.8461 30.1295L31.8455 30.1201C31.7416 28.5828 30.3963 27.4078 28.8476 27.5111C27.2876 27.6151 26.1348 28.9827 26.238 30.5097L26.2381 30.5117C26.3411 31.9738 27.5559 33.1358 29.0343 33.1358Z" fill="#AF2B3C"/>
</svg>
