<svg width="59" height="59" viewBox="0 0 59 59" fill="none" xmlns="http://www.w3.org/2000/svg">
<path fill-rule="evenodd" clip-rule="evenodd" d="M17.4575 43.9851H34.1255V24.2149H31.2267V21.4714H17.4575V43.9851ZM20.394 28.2579C19.4905 28.2579 19.4905 26.8651 20.394 26.8651H31.1879C32.093 26.8651 32.093 28.2579 31.1879 28.2579H20.394ZM20.394 30.1582H31.1879C32.0931 30.1582 32.0931 31.5494 31.1879 31.5494H20.394C19.4905 31.5494 19.4905 30.1582 20.394 30.1582ZM31.1879 33.2083H20.394C19.4905 33.2083 19.4905 34.5994 20.394 34.5994H31.1879C32.0931 34.5992 32.0931 33.2083 31.1879 33.2083ZM20.394 36.5007H31.1879C32.0931 36.5007 32.0931 37.8911 31.1879 37.8912H20.394C19.4905 37.8912 19.4905 36.5007 20.394 36.5007ZM30.9817 39.6078H20.1858C19.283 39.6078 19.283 40.9989 20.1858 40.9989H30.9817C31.8841 40.9987 31.8841 39.6078 30.9817 39.6078Z" fill="white"/>
<path fill-rule="evenodd" clip-rule="evenodd" d="M29.2857 58.5714C45.4597 58.5714 58.5714 45.4597 58.5714 29.2857C58.5714 13.1117 45.4597 0 29.2857 0C13.1117 0 0 13.1117 0 29.2857C0 45.4597 13.1117 58.5714 29.2857 58.5714ZM22.7016 12.1428H39.1116L42.8571 15.7462V38.1149H40.3487V36.3858H41.1139V16.6155H38.2144V13.8721H24.4442V15.1496H22.7016V12.1428ZM19.1211 15.7624V18.7686H20.8644V17.491H34.6342V20.2345H37.5336V40.0051H36.7678V41.7342H39.2762V19.3651L35.5313 15.7624H19.1211ZM15.7143 45.7143V19.7422H32.1238L35.8687 23.3455V45.7143H15.7143Z" fill="white"/>
</svg>
