<svg width="97" height="113" viewBox="0 0 97 113" fill="none" xmlns="http://www.w3.org/2000/svg">
<path fill-rule="evenodd" clip-rule="evenodd" d="M15.123 56.87C14.385 57.887 12.147 61.841 11.655 62.964C9.366 68.837 10.566 73.891 14.326 78.769L38.556 107.409C39.595 108.693 41.236 110.284 42.907 111.186C44.64 112.407 47.837 112.817 50.066 112.502C54.47 111.881 56.895 108.941 59.622 105.939C62.244 103.05 65.299 99.588 67.879 96.649C63.635 96.921 61.109 97.157 57.59 95.845C56.397 95.4 55.104 94.508 53.704 93.397C52.892 94.322 52.01 95.094 51.131 95.971C50.695 96.405 50.406 96.832 49.633 97.057C47.146 97.784 45.638 95.317 44.709 94.506L16.163 61.15C15.187 59.939 15.121 58.706 15.123 56.87ZM29.362 15.907C34.677 15.158 39.714 15.664 44.11 19.518C44.81 18.551 46.606 16.603 47.629 15.515C48.543 14.545 50.098 14.246 51.439 15.119L84.544 52.753C88.87 47.206 88.095 41.261 85.626 35.619C84.894 33.49 82.201 30.166 79.062 26.322C72.949 18.829 64.5 9.68197 61.057 5.78897C59.074 3.80797 57.756 2.24397 54.457 1.02497C49.526 -0.797031 44.288 -0.229031 40.166 3.12197C37.317 5.43897 32.005 12.685 29.362 15.907ZM8.175 71.466C6.829 70.186 6.455 69.74 5.921 69.192C0.788 63.024 -0.578 55.42 2.936 48.043C4.008 45.793 5.349 43.772 6.877 41.918L23.524 23.355C25.178 21.488 26.859 19.695 30.396 19.039C37.765 17.672 42.17 21.705 46.316 26.634L77.505 61.17L69.138 71.236L33.525 30.988L15.632 51.877C13.9 53.761 14.062 53.465 13.167 54.377C9.753 60.203 6.763 64.92 8.175 71.466ZM29.957 41.333L60.547 76.359L61.621 77.502C61.965 77.882 62.289 78.239 62.675 78.573C63.494 79.281 64.656 79.738 65.992 79.133C67.255 78.56 69.361 75.937 70.317 74.676L84.047 57.814C89.006 51.752 92.209 47.659 89.555 39.32C89.835 39.55 90.704 40.584 90.96 40.827C94.596 44.284 96.192 48.948 96.742 53.721C97.212 59.27 96.13 63.752 92.764 68.102L76.173 88.109C75.469 88.93 74.857 89.516 73.976 90.164C70.927 92.41 67.406 93.924 63.451 93.496C59.63 93.083 58.135 92.708 55.277 90.404C54.627 89.88 50.555 85.276 49.961 84.451L21.295 51.315L29.957 41.333Z" fill="white"/>
</svg>
